<?xml version="1.0" encoding="UTF-8" standalone="no"?>
<svg
   xmlns:dc="http://purl.org/dc/elements/1.1/"
   xmlns:cc="http://creativecommons.org/ns#"
   xmlns:rdf="http://www.w3.org/1999/02/22-rdf-syntax-ns#"
   xmlns:svg="http://www.w3.org/2000/svg"
   xmlns="http://www.w3.org/2000/svg"
   xmlns:sodipodi="http://sodipodi.sourceforge.net/DTD/sodipodi-0.dtd"
   width="430.50665"
   height="460.40143"
   viewBox="0 0 430.50665 460.40143"
   version="1.1"
   id="svg2216"
   inkscape:version="1.0.1 (3bc2e813f5, 2020-09-07)"
   sodipodi:docname="traditional-hexagon-monogram-010101.svg">
  <defs
     id="defs2210" />
  <sodipodi:namedview
     id="base"
     pagecolor="#ffffff"
     bordercolor="#666666"
     borderopacity="1.0"
     inkscape:pageopacity="0.0"
     inkscape:pageshadow="2"
     inkscape:zoom="0.98994949"
     inkscape:cx="418.51719"
     inkscape:cy="227.13887"
     inkscape:document-units="px"
     inkscape:current-layer="layer1"
     showgrid="false"
     units="px"
     inkscape:window-width="1366"
     inkscape:window-height="705"
     inkscape:window-x="-8"
     inkscape:window-y="-8"
     inkscape:window-maximized="1"
     fit-margin-top="10"
     fit-margin-left="10"
     fit-margin-bottom="10"
     fit-margin-right="10"
     inkscape:showpageshadow="false"
     scale-x="1"
     inkscape:document-rotation="0" />
  <metadata
     id="metadata2213">
    <rdf:RDF>
      <cc:Work
         rdf:about="">
        <dc:format>image/svg+xml</dc:format>
        <dc:type
           rdf:resource="http://purl.org/dc/dcmitype/StillImage" />
        <dc:title />
      </cc:Work>
    </rdf:RDF>
  </metadata>
  <g
     inkscape:label="Layer 1"
     inkscape:groupmode="layer"
     id="layer1"
     transform="translate(65.20281,79.980169)">
    

<g
       aria-label="N"
       transform="matrix(0.94773487,0,0,1.3274364,-12.959703,7.2979693e-4)"
       id="text855"
       style="font-size:140.931px;line-height:1.25;font-family:Arial;-inkscape-font-specification:'Arial, Normal';fill:#2a00ff;fill-opacity:1;stroke-width:0.891555">
      <path
         d="m 69.59721,138.6125 v -8.67056 l 9.106381,-1.92679 V 49.085535 L 69.59721,47.158744 V 38.41937 H 80.813886 96.61816 l 44.53575,70.46291 c 1.03967,-22.443953 0.78972,-37.329332 0.78972,-59.796745 L 131.73622,47.158744 V 38.41937 h 24.77303 11.21667 v 8.739374 l -11.21667,1.926791 V 138.6125 H 144.12273 L 93.682097,60.095769 93.269214,60.233397 v 67.781753 l 12.317696,1.92679 v 8.67056 z"
         style="font-style:normal;font-variant:normal;font-weight:normal;font-stretch:normal;font-family:'Roboto Slab';-inkscape-font-specification:'Roboto Slab';fill:#2a00ff;fill-opacity:1;stroke-width:0.891555"
         id="path848"
         sodipodi:nodetypes="cccccccccccccccccccccccc" />
    </g>



<g
       aria-label="N"
       transform="matrix(0.94773487,0,0,1.3274364,88.040297,65.00073)"
       id="g851"
       style="font-size:140.931px;line-height:1.25;font-family:Arial;-inkscape-font-specification:'Arial, Normal';fill:#2a00ff;fill-opacity:1;stroke-width:0.891555">
      <path
         d="m 69.59721,138.6125 v -8.67056 l 9.106381,-1.92679 V 49.085535 L 69.59721,47.158744 V 38.41937 H 80.813886 96.61816 l 44.53575,70.46291 c 1.03967,-22.443953 0.78972,-37.329332 0.78972,-59.796745 L 131.73622,47.158744 V 38.41937 h 24.77303 11.21667 v 8.739374 l -11.21667,1.926791 V 138.6125 H 144.12273 L 93.682097,60.095769 93.269214,60.233397 v 67.781753 l 12.317696,1.92679 v 8.67056 z"
         style="font-style:normal;font-variant:normal;font-weight:normal;font-stretch:normal;font-family:'Roboto Slab';-inkscape-font-specification:'Roboto Slab';fill:#2a00ff;fill-opacity:1;stroke-width:0.891555"
         id="path849"
         sodipodi:nodetypes="cccccccccccccccccccccccc" />
    </g>




    <g
       transform="translate(251.6101,-149.08886)"
       id="g824"
       style="fill:#2a00ff;fill-opacity:1">
      <path
         sodipodi:nodetypes="cccccccccccccc"
         inkscape:connector-curvature="0"
         id="path832"
         d="M -101.60069,102.75199 -285.62001,226.37652 V 373.1181 L -101.60069,497.84651 83.49069,373.1181 V 226.37652 Z m 0.25708,6.19676 178.496516,120.44273 V 369.01176 L -101.34361,489.91254 -279.83779,369.01176 V 229.39148 Z"
         style="opacity:1;fill:#2a00ff;fill-opacity:1;stroke:none;stroke-width:1.19655;stroke-linecap:butt;stroke-linejoin:round;stroke-miterlimit:4;stroke-dasharray:none;stroke-dashoffset:0;stroke-opacity:1;paint-order:fill markers stroke" />
      <path
         style="opacity:1;fill:#2a00ff;fill-opacity:1;stroke:none;stroke-width:1.32613;stroke-linecap:butt;stroke-linejoin:round;stroke-miterlimit:4;stroke-dasharray:none;stroke-dashoffset:0;stroke-opacity:1;paint-order:fill markers stroke"
         d="M -101.65874,79.108691 -306.81291,216.20805 V 381.05763 L -101.65874,519.51012 103.69374,381.05763 V 216.20805 Z m 0.28492,9.171314 L 96.453015,221.76611 V 376.50659 L -101.37382,510.50035 -299.19806,376.50659 V 221.76611 Z"
         id="path820"
         inkscape:connector-curvature="0"
         sodipodi:nodetypes="cccccccccccccc" />
    </g>
  </g>
</svg>
